<?xml version="1.0" encoding="UTF-8" standalone="no"?>
<svg width="417px" height="419px" viewBox="0 0 417 419" version="1.1" xmlns="http://www.w3.org/2000/svg" xmlns:xlink="http://www.w3.org/1999/xlink" xmlns:sketch="http://www.bohemiancoding.com/sketch/ns">
    <!-- Generator: Sketch 3.2.2 (9983) - http://www.bohemiancoding.com/sketch -->
    <title>logo-optimized-white</title>
    <desc>Created with Sketch.</desc>
    <defs></defs>
    <g id="Page-1" stroke="none" stroke-width="1" fill="none" fill-rule="evenodd" sketch:type="MSPage">
        <g id="logo-optimized-white" sketch:type="MSLayerGroup" fill="#FFFFFF">
            <g id="Group" sketch:type="MSShapeGroup">
                <circle id="Oval" cx="204.208" cy="210.917" r="9.17"></circle>
                <path d="M235.305,210.937 L235.212,213.101 C235.186,213.455 235.199,213.845 235.154,214.284 L234.983,215.724 C234.908,216.241 234.879,216.811 234.785,217.404 L234.421,219.279 C233.858,221.906 233.05,225.163 231.309,228.669 C229.585,232.149 226.992,235.989 223.038,239.094 C219.11,242.175 213.844,244.411 208.077,244.895 C207.361,244.976 206.631,244.942 205.903,244.961 L204.807,244.955 L204.258,244.95 L204.022,244.943 L203.96,244.936 L203.836,244.922 L203.588,244.894 C202.246,244.713 201.009,244.634 199.395,244.214 C198.64,244.03 197.852,243.878 197.136,243.631 L195.006,242.864 C194.288,242.637 193.616,242.267 192.93,241.949 C192.256,241.6 191.546,241.338 190.909,240.912 C188.241,239.453 185.846,237.543 183.586,235.517 C181.372,233.422 179.392,231.086 177.628,228.558 C175.911,225.992 174.531,223.192 173.403,220.247 L172.663,217.992 C172.382,217.243 172.288,216.451 172.092,215.676 C171.658,214.126 171.552,212.524 171.318,210.916 L171.233,208.538 C171.23,208.148 171.177,207.81 171.215,207.377 L171.297,206.111 C171.376,205.279 171.371,204.376 171.538,203.587 L171.96,201.147 C172.755,197.948 173.944,194.805 175.682,191.979 C177.451,189.184 179.565,186.619 181.997,184.422 C184.465,182.277 187.169,180.42 190.083,179.064 C192.991,177.724 196.038,176.712 199.117,176.324 C200.645,176.038 202.18,176.033 203.69,175.96 L203.973,175.952 L204.114,175.948 L204.185,175.946 L204.465,175.954 L204.96,175.989 L205.945,176.058 L206.923,176.127 C207.252,176.152 207.548,176.158 207.962,176.234 C208.734,176.349 209.499,176.487 210.255,176.626 C210.627,176.701 211.02,176.754 211.37,176.85 L212.404,177.146 L214.44,177.741 C215.099,177.979 215.735,178.267 216.372,178.527 C218.928,179.559 221.151,181.053 223.141,182.579 C227.058,185.782 229.654,189.619 231.37,193.121 C233.108,196.64 233.918,199.904 234.472,202.538 L234.828,204.418 C234.919,205.01 234.944,205.575 235.016,206.09 L235.177,207.524 C235.22,207.962 235.204,208.365 235.227,208.722 L235.301,210.915 L235.305,210.937 L235.305,210.937 Z M234.505,210.917 L234.361,208.785 C234.33,208.439 234.333,208.048 234.25,207.627 L233.983,206.254 C233.883,205.761 233.797,205.227 233.636,204.673 L233.061,202.931 C232.18,200.52 230.753,197.681 228.379,195.088 C226.06,192.474 222.983,190.048 219.377,188.209 C217.548,187.332 215.656,186.479 213.612,185.883 L212.079,185.418 L210.488,185.08 C209.395,184.778 208.429,184.811 207.402,184.623 C207.178,184.572 206.823,184.575 206.502,184.563 L205.522,184.533 L204.535,184.503 L204.039,184.488 L204.195,184.493 L204.142,184.497 L204.035,184.506 L203.821,184.523 C202.68,184.617 201.513,184.591 200.366,184.835 C198.038,185.098 195.746,185.817 193.463,186.665 C191.181,187.553 189.052,188.882 186.993,190.371 C184.977,191.928 183.187,193.82 181.591,195.907 C180.056,198.038 178.742,200.372 177.702,202.884 L177.002,204.808 C176.728,205.462 176.651,206.077 176.455,206.723 L176.197,207.69 C176.098,207.999 176.079,208.42 176.016,208.78 L175.858,209.903 L175.779,210.465 L175.739,210.746 L175.719,210.886 L175.709,210.956 L175.702,210.915 C175.495,213.716 175.622,216.586 176.26,219.383 C176.967,222.15 178.089,224.826 179.646,227.218 C181.247,229.572 183.171,231.692 185.406,233.352 C185.954,233.777 186.566,234.116 187.134,234.498 C187.424,234.682 187.706,234.875 188.004,235.042 L188.927,235.489 C189.546,235.774 190.13,236.107 190.758,236.347 L192.639,237.021 C193.247,237.271 193.915,237.358 194.538,237.532 C195.173,237.674 195.783,237.871 196.428,237.929 L198.309,238.193 C198.927,238.273 199.508,238.241 200.091,238.289 C201.153,238.399 202.618,238.299 203.926,238.285 L204.175,238.282 L204.3,238.281 L204.362,238.28 L204.25,238.27 L204.691,238.215 L205.567,238.109 C206.146,238.031 206.728,238.031 207.291,237.91 C211.821,237.165 215.889,235.692 219.484,233.78 C223.053,231.843 226.134,229.42 228.444,226.785 C230.815,224.18 232.244,221.335 233.116,218.915 L233.684,217.168 C233.842,216.615 233.925,216.086 234.021,215.595 L234.279,214.228 C234.36,213.808 234.353,213.405 234.381,213.056 L234.506,210.894 L234.505,210.917 L234.505,210.917 Z" id="Shape"></path>
                <path d="M248.234,256.11 L247.396,256.914 C246.828,257.433 246.058,258.26 244.909,259.224 C242.682,261.218 239.326,264.042 234.594,267.021 C233.41,267.762 232.163,268.548 230.798,269.277 C229.468,270.074 228.006,270.774 226.496,271.543 C223.433,272.987 220.016,274.362 216.242,275.522 C212.466,276.669 208.327,277.58 203.876,278.068 C199.428,278.514 194.667,278.591 189.741,277.98 C179.924,276.789 169.364,272.844 160.455,265.61 C159.323,264.737 158.289,263.73 157.196,262.785 C156.171,261.744 155.117,260.807 154.107,259.661 L152.711,258.093 C152.243,257.537 151.769,256.925 151.299,256.342 C150.321,255.171 149.522,253.944 148.643,252.734 C145.347,247.764 142.688,242.246 140.942,236.378 C140.464,234.925 140.139,233.421 139.744,231.938 C139.44,230.43 139.09,228.93 138.885,227.398 C138.408,224.349 138.105,221.257 138.049,218.143 C137.97,215.031 138.113,211.902 138.447,208.783 C138.741,205.658 139.312,202.552 140.022,199.47 C142.95,187.162 149.157,175.417 158.006,165.87 C159.202,164.674 160.168,163.579 161.439,162.442 C162.046,161.886 162.643,161.3 163.263,160.768 L165.133,159.187 C167.676,157.144 170.31,155.183 173.125,153.509 C178.723,150.118 184.816,147.522 191.134,145.913 C203.751,142.633 217.186,143.077 229.101,147.128 C235.079,149.092 240.618,152.038 245.552,155.569 C246.749,156.502 247.984,157.375 249.103,158.376 C249.671,158.866 250.249,159.342 250.802,159.841 L252.416,161.379 L252.816,161.764 L253.015,161.957 L253.115,162.053 L253.276,162.22 L253.986,162.982 L255.4,164.498 C256.348,165.648 257.388,166.785 258.229,167.942 C265.275,177.12 269.192,187.706 270.269,197.579 C271.422,207.486 270.033,216.586 267.725,224.12 C266.56,227.897 265.181,231.316 263.734,234.381 C262.964,235.892 262.262,237.355 261.464,238.685 C260.733,240.05 259.945,241.298 259.202,242.481 C256.215,247.21 253.374,250.566 251.38,252.778 C250.417,253.918 249.576,254.697 249.055,255.263 L248.244,256.102 L248.234,256.11 L248.234,256.11 Z M247.745,255.609 L248.537,254.767 C249.046,254.199 249.867,253.417 250.804,252.276 C252.738,250.058 255.446,246.64 258.096,241.827 C260.738,237.031 263.321,230.806 264.68,223.372 C266.077,215.966 266.227,207.384 264.442,198.502 C262.588,189.666 258.856,180.442 252.431,172.474 C251.658,171.442 250.817,170.579 250.01,169.606 L248.571,168.113 L247.848,167.363 L247.199,166.76 C245.333,164.922 243.267,163.26 241.127,161.658 C236.785,158.54 231.949,155.889 226.699,153.997 C216.221,150.171 204.183,149.344 192.577,151.932 C180.991,154.508 169.769,160.187 160.715,168.58 C158.492,170.709 156.328,172.922 154.383,175.327 C152.467,177.748 150.626,180.247 149.065,182.918 C145.909,188.234 143.522,194.007 142.096,199.969 C139.119,211.881 140.16,224.48 144.457,235.15 C146.567,240.51 149.505,245.367 152.858,249.673 C153.735,250.713 154.567,251.817 155.475,252.752 C155.926,253.238 156.345,253.716 156.815,254.203 L158.307,255.681 C159.178,256.598 160.24,257.465 161.183,258.351 C162.213,259.161 163.178,260.034 164.236,260.776 C172.474,267.014 181.723,270.718 190.615,272.457 C199.526,274.205 208.114,274.008 215.525,272.609 C222.965,271.241 229.195,268.654 233.99,266.003 C238.801,263.346 242.218,260.621 244.421,258.686 C245.553,257.75 246.343,256.915 246.91,256.403 L247.753,255.604 L247.745,255.609 L247.745,255.609 Z" id="Shape"></path>
                <path d="M107.033,212.993 L107.068,211.233 C107.117,210.071 107.06,208.352 107.259,206.098 C107.519,201.592 108.204,194.986 110.23,186.791 L111.046,183.646 C111.353,182.579 111.709,181.497 112.051,180.382 L112.566,178.687 L113.172,176.98 C113.596,175.836 113.965,174.639 114.461,173.464 L115.944,169.852 L117.654,166.169 C118.865,163.692 120.17,161.139 121.696,158.603 C124.702,153.504 128.355,148.317 132.762,143.291 C137.194,138.298 142.337,133.417 148.315,129.097 C149.83,128.051 151.353,126.974 152.936,125.956 L155.354,124.468 L156.575,123.722 L157.842,123.043 L160.395,121.675 C161.252,121.222 162.146,120.831 163.027,120.404 C164.781,119.53 166.611,118.786 168.456,118.03 C169.37,117.631 170.313,117.293 171.262,116.962 L174.12,115.961 L177.051,115.107 C178.033,114.826 179.013,114.522 180.021,114.308 C182.025,113.835 184.04,113.338 186.105,113.008 C187.135,112.835 188.16,112.607 189.205,112.479 L192.349,112.098 C193.398,111.952 194.459,111.89 195.523,111.822 L198.723,111.616 L201.948,111.569 L203.567,111.547 L203.833,111.548 L204.031,111.555 L204.426,111.57 L205.218,111.6 L208.396,111.744 C209.472,111.815 210.592,111.949 211.691,112.051 C213.917,112.221 216.072,112.623 218.266,112.941 C222.616,113.763 226.992,114.725 231.266,116.169 L232.879,116.678 L234.47,117.265 L237.652,118.461 C239.732,119.374 241.852,120.212 243.884,121.268 C260.304,129.331 274.833,142.233 285.102,158.289 C287.731,162.265 289.946,166.52 291.99,170.857 C294.072,175.185 295.7,179.732 297.139,184.339 C298.614,188.942 299.627,193.692 300.446,198.476 C301.227,203.29 301.589,208.091 301.742,213.042 C301.78,217.774 301.606,222.781 301.008,227.606 C300.37,232.442 299.54,237.273 298.223,241.979 C295.66,251.403 291.72,260.44 286.567,268.65 C276.299,285.109 261.324,298.209 244.51,306.089 C227.698,314.06 209.154,316.562 192.292,314.398 L189.14,313.966 C188.092,313.828 187.064,313.59 186.031,313.407 C183.961,313.057 181.941,312.541 179.934,312.049 C178.925,311.825 177.943,311.512 176.96,311.221 L174.027,310.338 L171.167,309.312 C170.217,308.974 169.274,308.629 168.359,308.224 C160.957,305.199 154.185,301.396 148.235,297.023 C136.318,288.248 127.65,277.61 121.65,267.429 C120.124,264.89 118.82,262.335 117.609,259.857 L115.9,256.172 L114.418,252.558 C113.923,251.383 113.554,250.185 113.13,249.04 L112.524,247.332 L112.01,245.636 C111.669,244.52 111.314,243.437 111.007,242.369 L110.194,239.222 C108.172,231.024 107.501,224.407 107.25,219.911 C107.055,217.663 107.115,215.931 107.068,214.767 L107.036,213.002 L107.033,212.993 L107.033,212.993 Z M107.633,213 L107.688,214.755 C107.75,215.911 107.712,217.633 107.936,219.863 C108.24,224.321 108.954,230.905 111.288,238.93 C112.369,242.961 113.986,247.3 116.016,251.882 C118.042,256.469 120.695,261.216 123.92,265.994 C127.151,270.769 131.005,275.557 135.541,280.116 C140.066,284.685 145.306,288.971 151.121,292.874 C152.605,293.805 154.09,294.766 155.63,295.667 C157.201,296.516 158.734,297.462 160.373,298.251 L162.813,299.489 C163.632,299.899 164.486,300.247 165.325,300.632 C166.997,301.42 168.741,302.08 170.494,302.754 C177.513,305.431 185.103,307.285 193.018,308.184 C194.011,308.329 194.989,308.388 195.971,308.455 L198.933,308.665 L202.074,308.726 L203.652,308.757 L205.103,308.712 L208.176,308.629 C209.202,308.585 210.228,308.479 211.259,308.408 C213.325,308.3 215.378,307.961 217.453,307.71 C221.571,307.023 225.729,306.214 229.801,304.936 L231.339,304.49 L232.857,303.967 L235.907,302.927 C237.903,302.12 239.943,301.389 241.902,300.443 C245.88,298.686 249.733,296.562 253.464,294.19 C257.221,291.853 260.773,289.136 264.192,286.232 C271.015,280.395 277.063,273.474 282.095,265.789 C292.155,250.404 298.073,231.94 298.456,212.958 C298.477,208.322 298.303,203.532 297.713,198.859 C297.083,194.18 296.276,189.508 294.988,184.961 C293.674,180.43 292.174,175.941 290.22,171.657 C288.269,167.378 286.108,163.195 283.559,159.272 C281.041,155.335 278.276,151.567 275.202,148.099 C272.148,144.62 268.921,141.309 265.387,138.396 C261.884,135.459 258.258,132.695 254.386,130.385 C250.551,128.026 246.598,125.925 242.528,124.199 C240.523,123.269 238.438,122.556 236.4,121.768 L233.288,120.758 L231.737,120.261 L230.167,119.842 C226.01,118.636 221.781,117.905 217.603,117.301 C215.503,117.092 213.406,116.795 211.356,116.733 C210.321,116.684 209.318,116.601 208.27,116.577 L205.089,116.556 L204.297,116.545 L203.901,116.539 L203.703,116.536 L203.574,116.542 L202.038,116.602 L198.982,116.718 L195.957,116.988 C194.952,117.076 193.95,117.157 192.961,117.321 C185.016,118.336 177.416,120.254 170.396,122.992 C168.642,123.679 166.899,124.353 165.227,125.154 C164.388,125.545 163.534,125.899 162.716,126.316 L160.278,127.573 C158.643,128.375 157.109,129.328 155.54,130.187 C154.002,131.097 152.518,132.066 151.037,133.005 C139.379,140.838 130.312,150.414 123.87,159.974 C120.646,164.757 117.994,169.508 115.968,174.098 C113.938,178.683 112.323,183.025 111.246,187.059 C108.916,195.086 108.216,201.681 107.921,206.13 C107.702,208.354 107.742,210.09 107.682,211.247 L107.63,213.007 L107.633,213 L107.633,213 Z" id="Shape"></path>
                <path d="M63.333,212.473 L63.391,209.85 L63.462,206.634 C63.483,205.996 63.475,205.307 63.523,204.568 L63.692,202.203 C64.092,195.506 65.12,185.664 68.246,173.506 L69.493,168.84 C69.964,167.258 70.503,165.653 71.025,163.999 L71.816,161.49 L72.742,158.964 C73.39,157.27 73.953,155.498 74.71,153.763 C77.498,146.719 81.183,139.362 85.735,131.865 C90.309,124.382 95.836,116.793 102.463,109.472 C109.092,102.165 116.778,95.067 125.64,88.767 C134.492,82.461 144.503,76.977 155.414,72.644 C156.762,72.062 158.152,71.573 159.551,71.089 L163.761,69.622 L168.075,68.364 C169.52,67.948 170.963,67.502 172.447,67.185 L176.89,66.14 C178.371,65.763 179.894,65.563 181.402,65.265 C182.918,65.01 184.427,64.671 185.965,64.482 L190.591,63.903 C192.135,63.68 193.697,63.583 195.263,63.475 L199.974,63.147 L204.725,63.055 L207.111,63.009 C208.01,63.014 208.714,63.054 209.527,63.075 L214.265,63.249 C215.859,63.338 217.491,63.522 219.108,63.656 C222.368,63.874 225.561,64.437 228.8,64.875 C235.227,66.025 241.702,67.382 248.034,69.452 L250.424,70.18 L252.782,71.023 L257.502,72.741 C260.589,74.06 263.739,75.264 266.759,76.795 C291.192,88.419 312.926,107.442 328.192,131.268 C335.874,143.142 341.891,156.232 345.952,169.968 L347.436,175.135 C347.874,176.873 348.267,178.624 348.685,180.37 C348.882,181.246 349.118,182.114 349.282,182.996 L349.772,185.646 C350.075,187.417 350.478,189.173 350.698,190.958 L351.416,196.308 C351.664,198.091 351.746,199.892 351.919,201.685 L352.146,204.378 C352.222,205.276 352.221,206.177 352.263,207.077 L352.45,212.515 L352.381,217.875 C352.36,218.771 352.38,219.656 352.324,220.56 L352.156,223.272 C352.022,225.076 351.978,226.9 351.768,228.691 L351.165,234.07 C350.983,235.866 350.618,237.635 350.353,239.42 L349.919,242.091 C349.773,242.981 349.556,243.857 349.377,244.741 C348.996,246.503 348.639,248.272 348.237,250.029 L346.853,255.256 C342.925,269.124 337.014,282.389 329.395,294.464 C314.163,318.649 292.033,337.82 267.28,349.296 C264.221,350.813 261.034,352.003 257.912,353.306 L253.14,354.999 L250.754,355.82 L248.337,356.526 C241.934,358.536 235.4,359.827 228.924,360.908 C225.664,361.312 222.434,361.839 219.188,362.019 C217.568,362.134 215.955,362.299 214.342,362.371 L209.514,362.494 L208.312,362.521 L207.711,362.534 L207.411,362.541 L207.046,362.535 L204.695,362.465 L200.015,362.327 L195.251,361.95 C193.666,361.825 192.084,361.709 190.543,361.471 L185.909,360.85 C184.369,360.653 182.857,360.306 181.338,360.043 C179.827,359.737 178.302,359.529 176.819,359.144 L172.372,358.075 C170.887,357.751 169.443,357.297 167.997,356.872 L163.681,355.59 L159.47,354.102 C158.07,353.613 156.68,353.118 155.331,352.53 C144.419,348.149 134.417,342.625 125.57,336.295 C107.866,323.571 94.809,308.073 85.693,293.122 C81.141,285.621 77.456,278.261 74.67,271.214 C73.913,269.478 73.351,267.705 72.703,266.011 L71.777,263.484 L70.986,260.974 C70.465,259.32 69.927,257.714 69.456,256.131 L68.211,251.463 C65.089,239.303 64.072,229.452 63.68,222.762 L63.513,220.399 C63.466,219.66 63.474,218.969 63.454,218.33 L63.386,215.108 L63.331,212.48 L63.333,212.473 L63.333,212.473 Z M63.833,212.479 L63.907,215.098 L63.998,218.308 C64.023,218.945 64.02,219.634 64.072,220.369 L64.255,222.723 C64.692,229.38 65.744,239.204 69.126,251.219 C72.405,263.224 78.11,277.442 87.606,291.913 C92.336,299.145 98.035,306.4 104.757,313.344 C111.472,320.294 119.252,326.878 127.975,332.836 C136.745,338.721 146.512,343.894 157.111,347.97 C167.695,352.086 179.181,354.888 191.15,356.292 C192.647,356.514 194.14,356.609 195.638,356.717 L200.152,357.048 L204.833,357.152 L207.185,357.204 L207.409,357.206 L207.698,357.197 L208.276,357.18 L209.434,357.145 L214.084,357.022 C215.637,356.955 217.19,356.795 218.75,356.686 C221.877,356.519 224.985,356.009 228.125,355.627 C234.359,354.59 240.652,353.359 246.817,351.428 L249.145,350.752 L251.443,349.963 L256.054,348.375 C259.07,347.143 262.154,346.029 265.114,344.59 C266.597,343.881 268.134,343.274 269.582,342.478 L273.988,340.19 C275.454,339.415 276.864,338.533 278.31,337.708 L280.47,336.449 L282.571,335.086 C288.241,331.538 293.594,327.416 298.748,323.017 C309.029,314.171 318.131,303.701 325.688,292.087 C333.265,280.482 339.219,267.67 343.261,254.207 L344.728,249.139 L345.962,244.003 C346.157,243.144 346.391,242.292 346.553,241.426 L347.037,238.826 C347.337,237.088 347.737,235.365 347.955,233.612 L348.669,228.361 C348.916,226.61 348.997,224.857 349.17,223.103 L349.398,220.471 C349.475,219.594 349.475,218.69 349.518,217.801 L349.713,212.445 C349.687,205.432 349.364,198.29 348.422,191.279 C348.242,189.516 347.879,187.78 347.617,186.028 L347.188,183.406 C347.044,182.532 346.828,181.673 346.652,180.806 C346.275,179.077 345.923,177.341 345.527,175.617 L344.16,170.489 C340.252,156.894 334.403,143.908 326.889,132.101 C325.997,130.594 324.98,129.172 323.993,127.732 C322.991,126.303 322.036,124.84 320.944,123.481 L317.758,119.346 L314.393,115.372 C309.82,110.166 305.005,105.196 299.741,100.8 C294.517,96.374 289.102,92.212 283.336,88.688 L281.203,87.329 L279.011,86.075 C277.544,85.254 276.113,84.375 274.626,83.606 L270.16,81.333 C268.692,80.543 267.135,79.942 265.633,79.239 C262.635,77.813 259.514,76.713 256.462,75.498 L251.799,73.935 L249.474,73.167 L247.119,72.514 C240.884,70.642 234.532,69.478 228.248,68.51 C225.087,68.163 221.943,67.688 218.829,67.559 C217.266,67.469 215.731,67.328 214.16,67.278 L209.42,67.206 C208.658,67.196 207.789,67.164 207.118,67.173 L204.801,67.249 L200.191,67.399 L195.625,67.779 C194.108,67.904 192.595,68.017 191.101,68.255 C179.107,69.756 167.613,72.611 157.028,76.778 L153.083,78.352 C151.766,78.857 150.515,79.502 149.236,80.065 C147.971,80.659 146.687,81.2 145.452,81.829 L141.78,83.736 L139.956,84.683 L138.181,85.699 L134.66,87.725 C132.349,89.111 130.128,90.594 127.905,92.024 C119.195,98.014 111.41,104.601 104.703,111.565 C97.984,118.519 92.298,125.788 87.565,133.02 C78.071,147.498 72.365,161.721 69.093,173.731 C65.715,185.749 64.674,195.582 64.245,202.231 L64.064,204.583 C64.012,205.318 64.016,206.01 63.992,206.647 L63.904,209.863 L63.832,212.486 L63.833,212.479 L63.833,212.479 Z" id="Shape"></path>
                <path d="M65.117,65.364 L67.822,62.774 L71.137,59.6 C71.8,58.976 72.493,58.278 73.279,57.574 L75.829,55.359 C82.964,49.008 93.882,40.057 109.291,30.986 L115.251,27.553 C117.294,26.389 119.473,25.352 121.657,24.203 L124.981,22.477 C126.108,21.909 127.282,21.404 128.45,20.856 C130.803,19.795 133.174,18.632 135.657,17.589 C145.563,13.353 156.63,9.579 168.726,6.583 C180.822,3.605 193.977,1.478 207.957,0.712 C221.927,-0.044 236.733,0.498 251.922,2.957 C267.114,5.361 282.636,9.799 297.939,16.214 C313.281,22.568 328.126,31.489 342.023,42.331 C342.89,43.012 343.79,43.654 344.633,44.37 L347.159,46.53 L352.231,50.877 L357.101,55.511 L359.547,57.839 C360.388,58.68 361.107,59.476 361.895,60.299 L366.529,65.226 C368.044,66.917 369.49,68.704 370.98,70.446 L373.203,73.08 C373.961,73.948 374.608,74.897 375.317,75.804 L379.495,81.321 C380.853,83.193 382.111,85.143 383.428,87.058 L385.387,89.948 C386.032,90.918 386.605,91.937 387.219,92.931 L390.852,98.945 L394.19,105.166 C394.739,106.21 395.322,107.237 395.844,108.297 L397.357,111.509 C398.346,113.662 399.424,115.78 400.344,117.975 L403.058,124.594 L403.738,126.253 L404.337,127.945 L405.531,131.336 C407.227,135.828 408.457,140.493 409.863,145.118 L411.59,152.176 C411.86,153.358 412.201,154.526 412.414,155.723 L413.102,159.307 L413.791,162.896 L414.136,164.693 L414.395,166.506 L415.439,173.771 C415.751,176.201 415.929,178.651 416.18,181.096 C416.291,182.32 416.428,183.543 416.518,184.77 L416.693,188.462 L416.868,192.159 C416.928,193.392 417,194.626 416.975,195.863 L416.971,203.292 C416.959,205.771 416.762,208.25 416.666,210.734 L416.484,214.461 L416.127,218.18 C415.863,220.658 415.709,223.152 415.354,225.625 L414.285,233.052 C413.935,235.531 413.367,237.977 412.929,240.447 L412.23,244.147 L411.362,247.815 C402.352,287.049 381.776,324.1 352.922,353.198 L347.408,358.495 C346.48,359.37 345.59,360.278 344.631,361.126 L341.733,363.652 C339.785,365.316 337.903,367.066 335.901,368.658 L329.88,373.414 L328.373,374.601 L326.813,375.716 L323.693,377.945 C321.612,379.429 319.555,380.949 317.378,382.289 L310.936,386.438 L304.31,390.274 C295.399,395.231 286.241,399.763 276.738,403.373 C267.271,407.045 257.608,410.199 247.76,412.439 C237.937,414.756 227.99,416.454 218.011,417.267 L214.276,417.624 L210.533,417.806 C208.039,417.902 205.55,418.099 203.06,418.11 L195.599,418.112 C194.357,418.136 193.118,418.063 191.879,418.003 L188.166,417.826 L184.458,417.649 C183.225,417.558 181.997,417.421 180.768,417.309 C178.313,417.056 175.852,416.876 173.411,416.562 L166.116,415.503 L164.296,415.237 L162.493,414.885 L158.891,414.181 L155.295,413.478 C154.094,413.26 152.922,412.914 151.736,412.638 L144.656,410.879 C140.017,409.452 135.34,408.2 130.836,406.482 L127.436,405.272 L125.74,404.665 L124.077,403.977 L117.444,401.231 C115.245,400.3 113.123,399.21 110.966,398.211 L107.753,396.674 C106.693,396.144 105.665,395.553 104.621,394.996 L98.401,391.611 L92.391,387.932 C91.398,387.311 90.381,386.73 89.411,386.078 L86.524,384.097 C84.612,382.765 82.664,381.492 80.796,380.12 C77.144,377.265 73.373,374.596 69.957,371.532 C68.224,370.032 66.453,368.584 64.765,367.054 L59.823,362.36 C58.995,361.562 58.197,360.84 57.348,359.984 L55.04,357.548 L50.446,352.698 L46.087,347.591 L43.921,345.047 C43.204,344.198 42.564,343.297 41.884,342.427 C31.056,328.489 22.176,313.603 15.836,298.243 C9.435,282.921 5.016,267.386 2.63,252.184 C0.196,236.986 -0.35,222.178 0.416,208.204 C1.187,194.221 3.326,181.067 6.303,168.969 C9.301,156.872 13.077,145.804 17.314,135.897 C18.357,133.414 19.521,131.043 20.582,128.69 C21.131,127.522 21.636,126.348 22.204,125.221 L23.931,121.897 C25.08,119.713 26.118,117.535 27.283,115.492 L30.718,109.533 C39.794,94.127 48.752,83.209 55.102,76.08 L57.317,73.532 C58.021,72.747 58.72,72.053 59.345,71.39 L62.522,68.073 L65.117,65.364 L65.117,65.364 Z M65.327,65.579 L62.755,68.293 L59.6,71.622 C58.98,72.288 58.285,72.984 57.586,73.772 L55.388,76.328 C49.088,83.479 40.207,94.424 31.239,109.837 C26.669,117.487 22.299,126.352 18.134,136.238 C14.047,146.16 10.44,157.223 7.623,169.282 C4.819,181.341 2.907,194.431 2.343,208.294 C1.768,222.154 2.602,236.78 5.096,251.772 C7.583,266.766 12.082,282.055 18.52,297.094 C24.911,312.159 33.586,326.839 44.292,340.534 C44.962,341.388 45.595,342.279 46.298,343.107 L48.417,345.588 L52.68,350.574 L57.28,355.417 L59.591,357.85 C60.321,358.582 61.185,359.371 61.978,360.13 L66.849,364.744 C68.513,366.248 70.258,367.67 71.966,369.144 C75.332,372.156 79.048,374.775 82.644,377.581 C84.484,378.928 86.403,380.177 88.286,381.485 L91.129,383.431 C92.083,384.072 93.086,384.641 94.064,385.25 L99.982,388.862 L106.107,392.183 C107.135,392.729 108.146,393.31 109.19,393.83 L112.354,395.337 C114.472,396.328 116.556,397.409 118.716,398.333 L125.234,401.06 L126.868,401.744 L128.535,402.348 L131.877,403.552 C136.304,405.262 140.905,406.508 145.468,407.933 L152.435,409.691 C153.602,409.967 154.755,410.313 155.938,410.532 L159.478,411.237 L163.025,411.944 L164.801,412.298 L166.593,412.567 L173.779,413.638 C176.183,413.957 178.608,414.141 181.028,414.401 C182.239,414.516 183.45,414.657 184.665,414.751 L188.32,414.938 L191.981,415.126 C193.202,415.19 194.424,415.267 195.649,415.247 L203.008,415.273 C205.465,415.272 207.921,415.085 210.382,415 L214.076,414.835 L217.763,414.496 C220.22,414.244 222.693,414.102 225.145,413.759 L232.511,412.729 C234.971,412.392 237.397,411.84 239.848,411.412 L243.519,410.729 L247.159,409.877 C256.905,407.744 266.48,404.704 275.872,401.148 C285.3,397.654 294.397,393.242 303.262,388.406 L309.855,384.66 L316.27,380.602 C318.438,379.292 320.487,377.801 322.562,376.348 L325.673,374.164 L327.229,373.072 L328.732,371.907 L334.741,367.24 C336.74,365.678 338.606,363.968 340.547,362.338 L343.433,359.865 C344.39,359.033 345.294,358.127 346.227,357.261 L351.784,352.009 L357.049,346.53 C357.92,345.607 358.828,344.716 359.67,343.766 L362.173,340.895 C363.822,338.965 365.556,337.104 367.135,335.116 L371.857,329.141 L373.036,327.646 L374.143,326.097 L376.356,323 C377.829,320.934 379.339,318.894 380.67,316.733 L384.79,310.34 L388.598,303.763 C393.496,294.906 397.972,285.807 401.53,276.371 C405.15,266.969 408.256,257.377 410.453,247.605 C412.734,237.859 414.366,227.988 415.136,218.094 L415.476,214.391 L415.641,210.681 C415.726,208.209 415.912,205.742 415.913,203.275 L415.886,195.884 C415.906,194.653 415.828,193.426 415.763,192.2 L415.573,188.523 L415.384,184.852 C415.289,183.632 415.148,182.416 415.032,181.199 C414.771,178.769 414.585,176.333 414.264,173.918 L413.178,166.702 L412.902,164.903 L412.54,163.121 L411.817,159.562 L411.096,156.01 C410.872,154.823 410.52,153.667 410.239,152.495 L408.449,145.506 C407.003,140.929 405.735,136.315 404.003,131.877 L402.783,128.527 L402.171,126.856 L401.479,125.218 L398.719,118.686 C397.784,116.521 396.692,114.434 395.69,112.312 L394.159,109.147 C393.631,108.103 393.042,107.091 392.488,106.063 L389.12,99.939 L385.462,94.025 C384.845,93.048 384.268,92.047 383.62,91.093 L381.652,88.254 C380.329,86.374 379.066,84.458 377.704,82.621 C374.871,79.034 372.219,75.318 369.193,71.978 C367.709,70.279 366.284,68.55 364.766,66.889 L360.091,62.002 C359.322,61.204 358.53,60.339 357.783,59.6 L355.359,57.309 L350.536,52.749 L345.515,48.475 L343.015,46.35 C342.181,45.646 341.29,45.016 340.432,44.346 C326.696,33.655 311.976,25.021 296.893,18.643 C281.834,12.22 266.532,7.739 251.529,5.271 C236.527,2.801 221.899,1.964 208.036,2.549 C194.169,3.119 181.08,5.042 169.019,7.845 C156.959,10.664 145.894,14.272 135.972,18.361 C126.085,22.527 117.22,26.9 109.571,31.473 C94.161,40.446 83.215,49.334 76.07,55.633 L73.515,57.831 C72.728,58.53 72.03,59.226 71.364,59.847 L68.034,63.005 L65.327,65.579 L65.327,65.579 Z" id="Shape"></path>
            </g>
        </g>
    </g>
</svg>