<svg width="417" height="419" viewBox="0 0 417 419" xmlns="http://www.w3.org/2000/svg" xmlns:sketch="http://www.bohemiancoding.com/sketch/ns"><title>goccia</title><desc>Created with Sketch.</desc><defs><linearGradient x1=".004%" y1="49.998%" x2="99.999%" y2="49.998%" id="a"><stop stop-color="#00AEEF" offset="17.37%"/><stop stop-color="#00A9C2" offset="43.07%"/><stop stop-color="#00A79D" offset="68.42%"/></linearGradient><linearGradient x1="-2.636%" y1="50.002%" x2="105.616%" y2="50.002%" id="b"><stop stop-color="#00AEEF" offset="17.37%"/><stop stop-color="#00A9C2" offset="43.07%"/><stop stop-color="#00A79D" offset="68.42%"/></linearGradient><linearGradient x1="14.435%" y1="15.385%" x2="84.981%" y2="84.868%" id="c"><stop stop-color="#00AEEF" offset="17.37%"/><stop stop-color="#00A9C2" offset="43.07%"/><stop stop-color="#00A79D" offset="68.42%"/></linearGradient><linearGradient x1="100.694%" y1="49.999%" x2="-1.386%" y2="49.999%" id="d"><stop stop-color="#00AEEF" offset="17.37%"/><stop stop-color="#00A9C2" offset="43.07%"/><stop stop-color="#00A79D" offset="68.42%"/></linearGradient><linearGradient x1="100.392%" y1="49.999%" x2="-.777%" y2="49.999%" id="e"><stop stop-color="#00AEEF" offset="17.37%"/><stop stop-color="#00A9C2" offset="43.07%"/><stop stop-color="#00A79D" offset="68.42%"/></linearGradient><linearGradient x1="84.727%" y1="84.596%" x2="15.342%" y2="15.351%" id="f"><stop stop-color="#00AEEF" offset="17.37%"/><stop stop-color="#00A9C2" offset="43.07%"/><stop stop-color="#00A79D" offset="68.42%"/></linearGradient></defs><g sketch:type="MSLayerGroup" fill="none"><circle fill="url(#a)" sketch:type="MSShapeGroup" cx="204.208" cy="210.917" r="9.17"/><path d="M235.305 210.937l-.093 2.164c-.026.354-.013.744-.058 1.183l-.171 1.44c-.075.517-.104 1.087-.198 1.68l-.364 1.875c-.563 2.627-1.371 5.884-3.112 9.39-1.724 3.48-4.317 7.32-8.271 10.425-3.928 3.081-9.194 5.317-14.961 5.801-.716.081-1.446.047-2.174.066l-1.096-.006-.549-.005-.236-.007-.062-.007-.124-.014-.248-.028c-1.342-.181-2.579-.26-4.193-.68-.755-.184-1.543-.336-2.259-.583l-2.13-.767c-.718-.227-1.39-.597-2.076-.915-.674-.349-1.384-.611-2.021-1.037-2.668-1.459-5.063-3.369-7.323-5.395-2.214-2.095-4.194-4.431-5.958-6.959-1.717-2.566-3.097-5.366-4.225-8.311l-.74-2.255c-.281-.749-.375-1.541-.571-2.316-.434-1.55-.54-3.152-.774-4.76l-.085-2.378c-.003-.39-.056-.728-.018-1.161l.082-1.266c.079-.832.074-1.735.241-2.524l.422-2.44c.795-3.199 1.984-6.342 3.722-9.168 1.769-2.795 3.883-5.36 6.315-7.557 2.468-2.145 5.172-4.002 8.086-5.358 2.908-1.34 5.955-2.352 9.034-2.74 1.528-.286 3.063-.291 4.573-.364l.283-.008.141-.004.071-.002.28.008.495.035.985.069.978.069c.329.025.625.031 1.039.107.772.115 1.537.253 2.293.392.372.075.765.128 1.115.224l1.034.296 2.036.595c.659.238 1.295.526 1.932.786 2.556 1.032 4.779 2.526 6.769 4.052 3.917 3.203 6.513 7.04 8.229 10.542 1.738 3.519 2.548 6.783 3.102 9.417l.356 1.88c.091.592.116 1.157.188 1.672l.161 1.434c.043.438.027.841.05 1.198l.074 2.193.004.022zm-.8-.02l-.144-2.132c-.031-.346-.028-.737-.111-1.158l-.267-1.373c-.1-.493-.186-1.027-.347-1.581l-.575-1.742c-.881-2.411-2.308-5.25-4.682-7.843-2.319-2.614-5.396-5.04-9.002-6.879-1.829-.877-3.721-1.73-5.765-2.326l-1.533-.465-1.591-.338c-1.093-.302-2.059-.269-3.086-.457-.224-.051-.579-.048-.9-.06l-.98-.03-.987-.03-.496-.015.156.005-.053.004-.107.009-.214.017c-1.141.094-2.308.068-3.455.312-2.328.263-4.62.982-6.903 1.83-2.282.888-4.411 2.217-6.47 3.706-2.016 1.557-3.806 3.449-5.402 5.536-1.535 2.131-2.849 4.465-3.889 6.977l-.7 1.924c-.274.654-.351 1.269-.547 1.915l-.258.967c-.099.309-.118.73-.181 1.09l-.158 1.123-.079.562-.04.281-.02.14-.01.07-.007-.041c-.207 2.801-.08 5.671.558 8.468.707 2.767 1.829 5.443 3.386 7.835 1.601 2.354 3.525 4.474 5.76 6.134.548.425 1.16.764 1.728 1.146.29.184.572.377.87.544l.923.447c.619.285 1.203.618 1.831.858l1.881.674c.608.25 1.276.337 1.899.511.635.142 1.245.339 1.89.397l1.881.264c.618.08 1.199.048 1.782.096 1.062.11 2.527.01 3.835-.004l.249-.003.125-.001.062-.001-.112-.01.441-.055.876-.106c.579-.078 1.161-.078 1.724-.199 4.53-.745 8.598-2.218 12.193-4.13 3.569-1.937 6.65-4.36 8.96-6.995 2.371-2.605 3.8-5.45 4.672-7.87l.568-1.747c.158-.553.241-1.082.337-1.573l.258-1.367c.081-.42.074-.823.102-1.172l.125-2.162-.001.023z" id="Shape" fill="url(#b)" sketch:type="MSShapeGroup"/><path d="M248.234 256.11l-.838.804c-.568.519-1.338 1.346-2.487 2.31-2.227 1.994-5.583 4.818-10.315 7.797-1.184.741-2.431 1.527-3.796 2.256-1.33.797-2.792 1.497-4.302 2.266-3.063 1.444-6.48 2.819-10.254 3.979-3.776 1.147-7.915 2.058-12.366 2.546-4.448.446-9.209.523-14.135-.088-9.817-1.191-20.377-5.136-29.286-12.37-1.132-.873-2.166-1.88-3.259-2.825-1.025-1.041-2.079-1.978-3.089-3.124l-1.396-1.568c-.468-.556-.942-1.168-1.412-1.751-.978-1.171-1.777-2.398-2.656-3.608-3.296-4.97-5.955-10.488-7.701-16.356-.478-1.453-.803-2.957-1.198-4.44-.304-1.508-.654-3.008-.859-4.54-.477-3.049-.78-6.141-.836-9.255-.079-3.112.064-6.241.398-9.36.294-3.125.865-6.231 1.575-9.313 2.928-12.308 9.135-24.053 17.984-33.6 1.196-1.196 2.162-2.291 3.433-3.428.607-.556 1.204-1.142 1.824-1.674l1.87-1.581c2.543-2.043 5.177-4.004 7.992-5.678 5.598-3.391 11.691-5.987 18.009-7.596 12.617-3.28 26.052-2.836 37.967 1.215 5.978 1.964 11.517 4.91 16.451 8.441 1.197.933 2.432 1.806 3.551 2.807.568.49 1.146.966 1.699 1.465l1.614 1.538.4.385.199.193.1.096.161.167.71.762 1.414 1.516c.948 1.15 1.988 2.287 2.829 3.444 7.046 9.178 10.963 19.764 12.04 29.637 1.153 9.907-.236 19.007-2.544 26.541-1.165 3.777-2.544 7.196-3.991 10.261-.77 1.511-1.472 2.974-2.27 4.304-.731 1.365-1.519 2.613-2.262 3.796-2.987 4.729-5.828 8.085-7.822 10.297-.963 1.14-1.804 1.919-2.325 2.485l-.811.839-.01.008zm-.489-.501l.792-.842c.509-.568 1.33-1.35 2.267-2.491 1.934-2.218 4.642-5.636 7.292-10.449 2.642-4.796 5.225-11.021 6.584-18.455 1.397-7.406 1.547-15.988-.238-24.87-1.854-8.836-5.586-18.06-12.011-26.028-.773-1.032-1.614-1.895-2.421-2.868l-1.439-1.493-.723-.75-.649-.603c-1.866-1.838-3.932-3.5-6.072-5.102-4.342-3.118-9.178-5.769-14.428-7.661-10.478-3.826-22.516-4.653-34.122-2.065-11.586 2.576-22.808 8.255-31.862 16.648-2.223 2.129-4.387 4.342-6.332 6.747-1.916 2.421-3.757 4.92-5.318 7.591-3.156 5.316-5.543 11.089-6.969 17.051-2.977 11.912-1.936 24.511 2.361 35.181 2.11 5.36 5.048 10.217 8.401 14.523.877 1.04 1.709 2.144 2.617 3.079.451.486.87.964 1.34 1.451l1.492 1.478c.871.917 1.933 1.784 2.876 2.67 1.03.81 1.995 1.683 3.053 2.425 8.238 6.238 17.487 9.942 26.379 11.681 8.911 1.748 17.499 1.551 24.91.152 7.44-1.368 13.67-3.955 18.465-6.606 4.811-2.657 8.228-5.382 10.431-7.317 1.132-.936 1.922-1.771 2.489-2.283l.843-.799-.008.005z" id="Shape" fill="url(#c)" sketch:type="MSShapeGroup"/><path d="M107.033 212.993l.035-1.76c.049-1.162-.008-2.881.191-5.135.26-4.506.945-11.112 2.971-19.307l.816-3.145c.307-1.067.663-2.149 1.005-3.264l.515-1.695.606-1.707c.424-1.144.793-2.341 1.289-3.516l1.483-3.612 1.71-3.683c1.211-2.477 2.516-5.03 4.042-7.566 3.006-5.099 6.659-10.286 11.066-15.312 4.432-4.993 9.575-9.874 15.553-14.194 1.515-1.046 3.038-2.123 4.621-3.141l2.418-1.488 1.221-.746 1.267-.679 2.553-1.368c.857-.453 1.751-.844 2.632-1.271 1.754-.874 3.584-1.618 5.429-2.374.914-.399 1.857-.737 2.806-1.068l2.858-1.001 2.931-.854c.982-.281 1.962-.585 2.97-.799 2.004-.473 4.019-.97 6.084-1.3 1.03-.173 2.055-.401 3.1-.529l3.144-.381c1.049-.146 2.11-.208 3.174-.276l3.2-.206 3.225-.047 1.619-.022.266.001.198.007.395.015.792.03 3.178.144c1.076.071 2.196.205 3.295.307 2.226.17 4.381.572 6.575.89 4.35.822 8.726 1.784 13 3.228l1.613.509 1.591.587 3.182 1.196c2.08.913 4.2 1.751 6.232 2.807 16.42 8.063 30.949 20.965 41.218 37.021 2.629 3.976 4.844 8.231 6.888 12.568 2.082 4.328 3.71 8.875 5.149 13.482 1.475 4.603 2.488 9.353 3.307 14.137.781 4.814 1.143 9.615 1.296 14.566.038 4.732-.136 9.739-.734 14.564-.638 4.836-1.468 9.667-2.785 14.373-2.563 9.424-6.503 18.461-11.656 26.671-10.268 16.459-25.243 29.559-42.057 37.439-16.812 7.971-35.356 10.473-52.218 8.309l-3.152-.432c-1.048-.138-2.076-.376-3.109-.559-2.07-.35-4.09-.866-6.097-1.358-1.009-.224-1.991-.537-2.974-.828l-2.933-.883-2.86-1.026c-.95-.338-1.893-.683-2.808-1.088-7.402-3.025-14.174-6.828-20.124-11.201-11.917-8.775-20.585-19.413-26.585-29.594-1.526-2.539-2.83-5.094-4.041-7.572l-1.709-3.685-1.482-3.614c-.495-1.175-.864-2.373-1.288-3.518l-.606-1.708-.514-1.696c-.341-1.116-.696-2.199-1.003-3.267l-.813-3.147c-2.022-8.198-2.693-14.815-2.944-19.311-.195-2.248-.135-3.98-.182-5.144l-.032-1.765-.003-.009zm.6.007l.055 1.755c.062 1.156.024 2.878.248 5.108.304 4.458 1.018 11.042 3.352 19.067 1.081 4.031 2.698 8.37 4.728 12.952 2.026 4.587 4.679 9.334 7.904 14.112 3.231 4.775 7.085 9.563 11.621 14.122 4.525 4.569 9.765 8.855 15.58 12.758 1.484.931 2.969 1.892 4.509 2.793 1.571.849 3.104 1.795 4.743 2.584l2.44 1.238c.819.41 1.673.758 2.512 1.143 1.672.788 3.416 1.448 5.169 2.122 7.019 2.677 14.609 4.531 22.524 5.43.993.145 1.971.204 2.953.271l2.962.21 3.141.061 1.578.031 1.451-.045 3.073-.083c1.026-.044 2.052-.15 3.083-.221 2.066-.108 4.119-.447 6.194-.698 4.118-.687 8.276-1.496 12.348-2.774l1.538-.446 1.518-.523 3.05-1.04c1.996-.807 4.036-1.538 5.995-2.484 3.978-1.757 7.831-3.881 11.562-6.253 3.757-2.337 7.309-5.054 10.728-7.958 6.823-5.837 12.871-12.758 17.903-20.443 10.06-15.385 15.978-33.849 16.361-52.831.021-4.636-.153-9.426-.743-14.099-.63-4.679-1.437-9.351-2.725-13.898-1.314-4.531-2.814-9.02-4.768-13.304-1.951-4.279-4.112-8.462-6.661-12.385-2.518-3.937-5.283-7.705-8.357-11.173-3.054-3.479-6.281-6.79-9.815-9.703-3.503-2.937-7.129-5.701-11.001-8.011-3.835-2.359-7.788-4.46-11.858-6.186-2.005-.93-4.09-1.643-6.128-2.431l-3.112-1.01-1.551-.497-1.57-.419c-4.157-1.206-8.386-1.937-12.564-2.541-2.1-.209-4.197-.506-6.247-.568-1.035-.049-2.038-.132-3.086-.156l-3.181-.021-.792-.011-.396-.006-.198-.003-.129.006-1.536.06-3.056.116-3.025.27c-1.005.088-2.007.169-2.996.333-7.945 1.015-15.545 2.933-22.565 5.671-1.754.687-3.497 1.361-5.169 2.162-.839.391-1.693.745-2.511 1.162l-2.438 1.257c-1.635.802-3.169 1.755-4.738 2.614-1.538.91-3.022 1.879-4.503 2.818-11.658 7.833-20.725 17.409-27.167 26.969-3.224 4.783-5.876 9.534-7.902 14.124-2.03 4.585-3.645 8.927-4.722 12.961-2.33 8.027-3.03 14.622-3.325 19.071-.219 2.224-.179 3.96-.239 5.117l-.052 1.76.003-.007z" id="Shape" fill="url(#d)" sketch:type="MSShapeGroup"/><path d="M63.333 212.473l.058-2.623.071-3.216c.021-.638.013-1.327.061-2.066l.169-2.365c.4-6.697 1.428-16.539 4.554-28.697l1.247-4.666c.471-1.582 1.01-3.187 1.532-4.841l.791-2.509.926-2.526c.648-1.694 1.211-3.466 1.968-5.201 2.788-7.044 6.473-14.401 11.025-21.898 4.574-7.483 10.101-15.072 16.728-22.393 6.629-7.307 14.315-14.405 23.177-20.705 8.852-6.306 18.863-11.79 29.774-16.123 1.348-.582 2.738-1.071 4.137-1.555l4.21-1.467 4.314-1.258c1.445-.416 2.888-.862 4.372-1.179l4.443-1.045c1.481-.377 3.004-.577 4.512-.875 1.516-.255 3.025-.594 4.563-.783l4.626-.579c1.544-.223 3.106-.32 4.672-.428l4.711-.328 4.751-.092 2.386-.046c.899.005 1.603.045 2.416.066l4.738.174c1.594.089 3.226.273 4.843.407 3.26.218 6.453.781 9.692 1.219 6.427 1.15 12.902 2.507 19.234 4.577l2.39.728 2.358.843 4.72 1.718c3.087 1.319 6.237 2.523 9.257 4.054 24.433 11.624 46.167 30.647 61.433 54.473 7.682 11.874 13.699 24.964 17.76 38.7l1.484 5.167c.438 1.738.831 3.489 1.249 5.235.197.876.433 1.744.597 2.626l.49 2.65c.303 1.771.706 3.527.926 5.312l.718 5.35c.248 1.783.33 3.584.503 5.377l.227 2.693c.076.898.075 1.799.117 2.699l.187 5.438-.069 5.36c-.021.896-.001 1.781-.057 2.685l-.168 2.712c-.134 1.804-.178 3.628-.388 5.419l-.603 5.379c-.182 1.796-.547 3.565-.812 5.35l-.434 2.671c-.146.89-.363 1.766-.542 2.65-.381 1.762-.738 3.531-1.14 5.288l-1.384 5.227c-3.928 13.868-9.839 27.133-17.458 39.208-15.232 24.185-37.362 43.356-62.115 54.832-3.059 1.517-6.246 2.707-9.368 4.01l-4.772 1.693-2.386.821-2.417.706c-6.403 2.01-12.937 3.301-19.413 4.382-3.26.404-6.49.931-9.736 1.111-1.62.115-3.233.28-4.846.352l-4.828.123-1.202.027-.601.013-.3.007-.365-.006-2.351-.07-4.68-.138-4.764-.377c-1.585-.125-3.167-.241-4.708-.479l-4.634-.621c-1.54-.197-3.052-.544-4.571-.807-1.511-.306-3.036-.514-4.519-.899l-4.447-1.069c-1.485-.324-2.929-.778-4.375-1.203l-4.316-1.282-4.211-1.488c-1.4-.489-2.79-.984-4.139-1.572-10.912-4.381-20.914-9.905-29.761-16.235-17.704-12.724-30.761-28.222-39.877-43.173-4.552-7.501-8.237-14.861-11.023-21.908-.757-1.736-1.319-3.509-1.967-5.203l-.926-2.527-.791-2.51c-.521-1.654-1.059-3.26-1.53-4.843l-1.245-4.668c-3.122-12.16-4.139-22.011-4.531-28.701l-.167-2.363c-.047-.739-.039-1.43-.059-2.069l-.068-3.222-.055-2.628.002-.007zm.5.006l.074 2.619.091 3.21c.025.637.022 1.326.074 2.061l.183 2.354c.437 6.657 1.489 16.481 4.871 28.496 3.279 12.005 8.984 26.223 18.48 40.694 4.73 7.232 10.429 14.487 17.151 21.431 6.715 6.95 14.495 13.534 23.218 19.492 8.77 5.885 18.537 11.058 29.136 15.134 10.584 4.116 22.07 6.918 34.039 8.322 1.497.222 2.99.317 4.488.425l4.514.331 4.681.104 2.352.052.224.002.289-.009.578-.017 1.158-.035 4.65-.123c1.553-.067 3.106-.227 4.666-.336 3.127-.167 6.235-.677 9.375-1.059 6.234-1.037 12.527-2.268 18.692-4.199l2.328-.676 2.298-.789 4.611-1.588c3.016-1.232 6.1-2.346 9.06-3.785 1.483-.709 3.02-1.316 4.468-2.112l4.406-2.288c1.466-.775 2.876-1.657 4.322-2.482l2.16-1.259 2.101-1.363c5.67-3.548 11.023-7.67 16.177-12.069 10.281-8.846 19.383-19.316 26.94-30.93 7.577-11.605 13.531-24.417 17.573-37.88l1.467-5.068 1.234-5.136c.195-.859.429-1.711.591-2.577l.484-2.6c.3-1.738.7-3.461.918-5.214l.714-5.251c.247-1.751.328-3.504.501-5.258l.228-2.632c.077-.877.077-1.781.12-2.67l.195-5.356c-.026-7.013-.349-14.155-1.291-21.166-.18-1.763-.543-3.499-.805-5.251l-.429-2.622c-.144-.874-.36-1.733-.536-2.6-.377-1.729-.729-3.465-1.125-5.189l-1.367-5.128c-3.908-13.595-9.757-26.581-17.271-38.388-.892-1.507-1.909-2.929-2.896-4.369-1.002-1.429-1.957-2.892-3.049-4.251l-3.186-4.135-3.365-3.974c-4.573-5.206-9.388-10.176-14.652-14.572-5.224-4.426-10.639-8.588-16.405-12.112l-2.133-1.359-2.192-1.254c-1.467-.821-2.898-1.7-4.385-2.469l-4.466-2.273c-1.468-.79-3.025-1.391-4.527-2.094-2.998-1.426-6.119-2.526-9.171-3.741l-4.663-1.563-2.325-.768-2.355-.653c-6.235-1.872-12.587-3.036-18.871-4.004-3.161-.347-6.305-.822-9.419-.951-1.563-.09-3.098-.231-4.669-.281l-4.74-.072c-.762-.01-1.631-.042-2.302-.033l-2.317.076-4.61.15-4.566.38c-1.517.125-3.03.238-4.524.476-11.994 1.501-23.488 4.356-34.073 8.523l-3.945 1.574c-1.317.505-2.568 1.15-3.847 1.713-1.265.594-2.549 1.135-3.784 1.764l-3.672 1.907-1.824.947-1.775 1.016-3.521 2.026c-2.311 1.386-4.532 2.869-6.755 4.299-8.71 5.99-16.495 12.577-23.202 19.541-6.719 6.954-12.405 14.223-17.138 21.455-9.494 14.478-15.2 28.701-18.472 40.711-3.378 12.018-4.419 21.851-4.848 28.5l-.181 2.352c-.052.735-.048 1.427-.072 2.064l-.088 3.216-.072 2.623.001-.007z" id="Shape" fill="url(#e)" sketch:type="MSShapeGroup"/><path d="M65.117 65.364l2.705-2.59 3.315-3.174c.663-.624 1.356-1.322 2.142-2.026l2.55-2.215c7.135-6.351 18.053-15.302 33.462-24.373l5.96-3.433c2.043-1.164 4.222-2.201 6.406-3.35l3.324-1.726c1.127-.568 2.301-1.073 3.469-1.621 2.353-1.061 4.724-2.224 7.207-3.267 9.906-4.236 20.973-8.01 33.069-11.006 12.096-2.978 25.251-5.105 39.231-5.871 13.97-.756 28.776-.214 43.965 2.245 15.192 2.404 30.714 6.842 46.017 13.257 15.342 6.354 30.187 15.275 44.084 26.117.867.681 1.767 1.323 2.61 2.039l2.526 2.16 5.072 4.347 4.87 4.634 2.446 2.328c.841.841 1.56 1.637 2.348 2.46l4.634 4.927c1.515 1.691 2.961 3.478 4.451 5.22l2.223 2.634c.758.868 1.405 1.817 2.114 2.724l4.178 5.517c1.358 1.872 2.616 3.822 3.933 5.737l1.959 2.89c.645.97 1.218 1.989 1.832 2.983l3.633 6.014 3.338 6.221c.549 1.044 1.132 2.071 1.654 3.131l1.513 3.212c.989 2.153 2.067 4.271 2.987 6.466l2.714 6.619.68 1.659.599 1.692 1.194 3.391c1.696 4.492 2.926 9.157 4.332 13.782l1.727 7.058c.27 1.182.611 2.35.824 3.547l.688 3.584.689 3.589.345 1.797.259 1.813 1.044 7.265c.312 2.43.49 4.88.741 7.325.111 1.224.248 2.447.338 3.674l.175 3.692.175 3.697c.06 1.233.132 2.467.107 3.704l-.004 7.429c-.012 2.479-.209 4.958-.305 7.442l-.182 3.727-.357 3.719c-.264 2.478-.418 4.972-.773 7.445l-1.069 7.427c-.35 2.479-.918 4.925-1.356 7.395l-.699 3.7-.868 3.668c-9.01 39.234-29.586 76.285-58.44 105.383l-5.514 5.297c-.928.875-1.818 1.783-2.777 2.631l-2.898 2.526c-1.948 1.664-3.83 3.414-5.832 5.006l-6.021 4.756-1.507 1.187-1.56 1.115-3.12 2.229c-2.081 1.484-4.138 3.004-6.315 4.344l-6.442 4.149-6.626 3.836c-8.911 4.957-18.069 9.489-27.572 13.099-9.467 3.672-19.13 6.826-28.978 9.066-9.823 2.317-19.77 4.015-29.749 4.828l-3.735.357-3.743.182c-2.494.096-4.983.293-7.473.304l-7.461.002c-1.242.024-2.481-.049-3.72-.109l-3.713-.177-3.708-.177c-1.233-.091-2.461-.228-3.69-.34-2.455-.253-4.916-.433-7.357-.747l-7.295-1.059-1.82-.266-1.803-.352-3.602-.704-3.596-.703c-1.201-.218-2.373-.564-3.559-.84l-7.08-1.759c-4.639-1.427-9.316-2.679-13.82-4.397l-3.4-1.21-1.696-.607-1.663-.688-6.633-2.746c-2.199-.931-4.321-2.021-6.478-3.02l-3.213-1.537c-1.06-.53-2.088-1.121-3.132-1.678l-6.22-3.385-6.01-3.679c-.993-.621-2.01-1.202-2.98-1.854l-2.887-1.981c-1.912-1.332-3.86-2.605-5.728-3.977-3.652-2.855-7.423-5.524-10.839-8.588-1.733-1.5-3.504-2.948-5.192-4.478l-4.942-4.694c-.828-.798-1.626-1.52-2.475-2.376l-2.308-2.436-4.594-4.85-4.359-5.107-2.166-2.544c-.717-.849-1.357-1.75-2.037-2.62-10.828-13.938-19.708-28.824-26.048-44.184-6.401-15.322-10.82-30.857-13.206-46.059-2.434-15.198-2.98-30.006-2.214-43.98.771-13.983 2.91-27.137 5.887-39.235 2.998-12.097 6.774-23.165 11.011-33.072 1.043-2.483 2.207-4.854 3.268-7.207.549-1.168 1.054-2.342 1.622-3.469l1.727-3.324c1.149-2.184 2.187-4.362 3.352-6.405l3.435-5.959c9.076-15.406 18.034-26.324 24.384-33.453l2.215-2.548c.704-.785 1.403-1.479 2.028-2.142l3.177-3.317 2.595-2.709zm.21.215l-2.572 2.714-3.155 3.329c-.62.666-1.315 1.362-2.014 2.15l-2.198 2.556c-6.3 7.151-15.181 18.096-24.149 33.509-4.57 7.65-8.94 16.515-13.105 26.401-4.087 9.922-7.694 20.985-10.511 33.044-2.804 12.059-4.716 25.149-5.28 39.012-.575 13.86.259 28.486 2.753 43.478 2.487 14.994 6.986 30.283 13.424 45.322 6.391 15.065 15.066 29.745 25.772 43.44.67.854 1.303 1.745 2.006 2.573l2.119 2.481 4.263 4.986 4.6 4.843 2.311 2.433c.73.732 1.594 1.521 2.387 2.28l4.871 4.614c1.664 1.504 3.409 2.926 5.117 4.4 3.366 3.012 7.082 5.631 10.678 8.437 1.84 1.347 3.759 2.596 5.642 3.904l2.843 1.946c.954.641 1.957 1.21 2.935 1.819l5.918 3.612 6.125 3.321c1.028.546 2.039 1.127 3.083 1.647l3.164 1.507c2.118.991 4.202 2.072 6.362 2.996l6.518 2.727 1.634.684 1.667.604 3.342 1.204c4.427 1.71 9.028 2.956 13.591 4.381l6.967 1.758c1.167.276 2.32.622 3.503.841l3.54.705 3.547.707 1.776.354 1.792.269 7.186 1.071c2.404.319 4.829.503 7.249.763 1.211.115 2.422.256 3.637.35l3.655.187 3.661.188c1.221.064 2.443.141 3.668.121l7.359.026c2.457-.001 4.913-.188 7.374-.273l3.694-.165 3.687-.339c2.457-.252 4.93-.394 7.382-.737l7.366-1.03c2.46-.337 4.886-.889 7.337-1.317l3.671-.683 3.64-.852c9.746-2.133 19.321-5.173 28.713-8.729 9.428-3.494 18.525-7.906 27.39-12.742l6.593-3.746 6.415-4.058c2.168-1.31 4.217-2.801 6.292-4.254l3.111-2.184 1.556-1.092 1.503-1.165 6.009-4.667c1.999-1.562 3.865-3.272 5.806-4.902l2.886-2.473c.957-.832 1.861-1.738 2.794-2.604l5.557-5.252 5.265-5.479c.871-.923 1.779-1.814 2.621-2.764l2.503-2.871c1.649-1.93 3.383-3.791 4.962-5.779l4.722-5.975 1.179-1.495 1.107-1.549 2.213-3.097c1.473-2.066 2.983-4.106 4.314-6.267l4.12-6.393 3.808-6.577c4.898-8.857 9.374-17.956 12.932-27.392 3.62-9.402 6.726-18.994 8.923-28.766 2.281-9.746 3.913-19.617 4.683-29.511l.34-3.703.165-3.71c.085-2.472.271-4.939.272-7.406l-.027-7.391c.02-1.231-.058-2.458-.123-3.684l-.19-3.677-.189-3.671c-.095-1.22-.236-2.436-.352-3.653-.261-2.43-.447-4.866-.768-7.281l-1.086-7.216-.276-1.799-.362-1.782-.723-3.559-.721-3.552c-.224-1.187-.576-2.343-.857-3.515l-1.79-6.989c-1.446-4.577-2.714-9.191-4.446-13.629l-1.22-3.35-.612-1.671-.692-1.638-2.76-6.532c-.935-2.165-2.027-4.252-3.029-6.374l-1.531-3.165c-.528-1.044-1.117-2.056-1.671-3.084l-3.368-6.124-3.658-5.914c-.617-.977-1.194-1.978-1.842-2.932l-1.968-2.839c-1.323-1.88-2.586-3.796-3.948-5.633-2.833-3.587-5.485-7.303-8.511-10.643-1.484-1.699-2.909-3.428-4.427-5.089l-4.675-4.887c-.769-.798-1.561-1.663-2.308-2.402l-2.424-2.291-4.823-4.56-5.021-4.274-2.5-2.125c-.834-.704-1.725-1.334-2.583-2.004-13.736-10.691-28.456-19.325-43.539-25.703-15.059-6.423-30.361-10.904-45.364-13.372-15.002-2.47-29.63-3.307-43.493-2.722-13.867.57-26.956 2.493-39.017 5.296-12.06 2.819-23.125 6.427-33.047 10.516-9.887 4.166-18.752 8.539-26.401 13.112-15.41 8.973-26.356 17.861-33.501 24.16l-2.555 2.198c-.787.699-1.485 1.395-2.151 2.016l-3.33 3.158-2.707 2.574z" fill="url(#f)" sketch:type="MSShapeGroup"/></g></svg>